<svg width="97" height="97" viewBox="0 0 97 97" fill="none" xmlns="http://www.w3.org/2000/svg">
<path d="M68.8848 59.5808C68.0161 58.8027 66.6813 58.8786 65.9074 59.7453C61.5086 64.6607 55.1657 67.4779 48.5001 67.4779C41.8366 67.4779 35.4915 64.6607 31.0928 59.7453C30.3147 58.8786 28.9841 58.8027 28.1153 59.5808C27.2465 60.3568 27.1748 61.6895 27.9508 62.5583C33.1488 68.3656 40.6388 71.6953 48.5001 71.6953C56.3634 71.6953 63.8535 68.3635 69.0493 62.5583C69.8253 61.6895 69.7515 60.3568 68.8848 59.5808Z" fill="#37796D"/>
<path d="M48.5 0C21.7575 0 0 21.7575 0 48.5C0 75.2425 21.7575 97 48.5 97C75.2425 97 97 75.2425 97 48.5C97 21.7575 75.2425 0 48.5 0ZM48.5 92.7826C24.0813 92.7826 4.21739 72.9187 4.21739 48.5C4.21739 24.0813 24.0813 4.21739 48.5 4.21739C72.9187 4.21739 92.7826 24.0813 92.7826 48.5C92.7826 72.9187 72.9187 92.7826 48.5 92.7826Z" fill="#37796D"/>
<path d="M65.3697 33.7383C59.556 33.7383 54.8262 38.4681 54.8262 44.2818C54.8262 45.4458 55.7709 46.3905 56.9349 46.3905C58.0989 46.3905 59.0436 45.4458 59.0436 44.2818C59.0436 40.794 61.8819 37.9557 65.3697 37.9557C68.8574 37.9557 71.6957 40.794 71.6957 44.2818C71.6957 45.4458 72.6404 46.3905 73.8044 46.3905C74.9684 46.3905 75.9131 45.4458 75.9131 44.2818C75.9131 38.4681 71.1833 33.7383 65.3697 33.7383Z" fill="#37796D"/>
<path d="M37.9565 44.2818C37.9565 45.4458 38.9012 46.3905 40.0652 46.3905C41.2292 46.3905 42.1739 45.4458 42.1739 44.2818C42.1739 38.4681 37.4441 33.7383 31.6304 33.7383C25.8167 33.7383 21.0869 38.4681 21.0869 44.2818C21.0869 45.4458 22.0316 46.3905 23.1956 46.3905C24.3596 46.3905 25.3043 45.4458 25.3043 44.2818C25.3043 40.794 28.1426 37.9557 31.6304 37.9557C35.1182 37.9557 37.9565 40.794 37.9565 44.2818Z" fill="#37796D"/>
</svg>
