<svg width="40" height="39" viewBox="0 0 40 39" fill="none" xmlns="http://www.w3.org/2000/svg">
<path d="M20.0351 0.14624C9.28692 0.14624 0.571228 9.00891 0.571228 19.9424C0.571228 28.6891 6.14823 36.1096 13.8818 38.7273C14.8546 38.9106 15.2117 38.2979 15.2117 37.775C15.2117 37.3029 15.1937 35.7435 15.1853 34.0893C9.77039 35.2868 8.62779 31.7535 8.62779 31.7535C7.74239 29.4653 6.46667 28.8569 6.46667 28.8569C4.70072 27.6282 6.59979 27.6535 6.59979 27.6535C8.5543 27.7928 9.58345 29.6935 9.58345 29.6935C11.3194 32.72 14.1368 31.845 15.2475 31.3392C15.4222 30.06 15.9266 29.186 16.4832 28.692C12.16 28.1914 7.6154 26.494 7.6154 18.9085C7.6154 16.7472 8.37574 14.9812 9.62084 13.5948C9.41875 13.0959 8.75253 11.0827 9.80939 8.35589C9.80939 8.35589 11.4438 7.82384 15.1634 10.3851C16.7159 9.94648 18.381 9.72651 20.0351 9.71898C21.6892 9.72651 23.3556 9.94648 24.9111 10.3851C28.6261 7.82384 30.2583 8.35589 30.2583 8.35589C31.3177 11.0827 30.6512 13.0959 30.4491 13.5948C31.6971 14.9812 32.4523 16.7472 32.4523 18.9085C32.4523 26.512 27.8989 28.1862 23.5648 28.6763C24.2629 29.2906 24.885 30.4954 24.885 32.3423C24.885 34.9908 24.8624 37.1226 24.8624 37.775C24.8624 38.3018 25.2128 38.9191 26.1994 38.7247C33.9288 36.1041 39.4987 28.6861 39.4987 19.9424C39.4987 9.00891 30.7843 0.14624 20.0351 0.14624Z" fill="#1B4049"/>
<path d="M7.9432 28.5694C7.90034 28.6681 7.7482 28.6972 7.60961 28.6297C7.46844 28.5651 7.38915 28.431 7.43492 28.3324C7.47682 28.2311 7.62927 28.2032 7.77012 28.2704C7.91162 28.3353 7.9922 28.4707 7.9432 28.5694Z" fill="#1B4049"/>
<path d="M8.73158 29.4637C8.63876 29.5512 8.45729 29.5106 8.33417 29.3723C8.20686 29.2342 8.183 29.0497 8.27712 28.9608C8.37285 28.8733 8.54883 28.9143 8.67647 29.0523C8.80378 29.192 8.8286 29.3752 8.73158 29.4637Z" fill="#1B4049"/>
<path d="M9.49902 30.6039C9.37977 30.6881 9.18477 30.6091 9.06422 30.4331C8.94496 30.257 8.94496 30.0459 9.0668 29.9613C9.18767 29.8767 9.37977 29.9528 9.50192 30.1275C9.62086 30.3062 9.62086 30.5176 9.49902 30.6039Z" fill="#1B4049"/>
<path d="M10.5504 31.7053C10.4437 31.825 10.2165 31.7928 10.0501 31.6296C9.87996 31.4699 9.83258 31.2434 9.93958 31.1238C10.0476 31.0038 10.2761 31.0375 10.4437 31.1995C10.6126 31.3588 10.6641 31.587 10.5504 31.7053Z" fill="#1B4049"/>
<path d="M12.0008 32.3449C11.9538 32.5 11.7349 32.5705 11.5144 32.5046C11.2943 32.4367 11.1502 32.2551 11.1947 32.0984C11.2405 31.9424 11.4603 31.8689 11.6824 31.9394C11.9022 32.0069 12.0466 32.1872 12.0008 32.3449Z" fill="#1B4049"/>
<path d="M13.5937 32.4636C13.5991 32.6269 13.4122 32.7623 13.1808 32.7649C12.9481 32.7705 12.7598 32.6383 12.7573 32.4777C12.7573 32.3128 12.94 32.1787 13.1727 32.1748C13.4041 32.1702 13.5937 32.3013 13.5937 32.4636Z" fill="#1B4049"/>
<path d="M15.076 32.2069C15.1037 32.3663 14.9429 32.5298 14.7131 32.5731C14.4872 32.6154 14.278 32.5171 14.2493 32.3591C14.2212 32.1958 14.385 32.0322 14.6106 31.9899C14.8407 31.9493 15.0467 32.045 15.076 32.2069Z" fill="#1B4049"/>
</svg>
