<svg width="40" height="39" viewBox="0 0 40 39" fill="none" xmlns="http://www.w3.org/2000/svg">
<path fill-rule="evenodd" clip-rule="evenodd" d="M20 0C9.23045 0 0.5 8.73045 0.5 19.5C0.5 30.2696 9.23045 39 20 39C30.7696 39 39.5 30.2696 39.5 19.5C39.5 8.73045 30.7696 0 20 0ZM19.9707 21.1407L12.6864 15.8531V26.9994H11.4695C10.7915 26.9994 10.2525 26.4604 10.2525 25.7824V13.4566C10.2525 13.4049 10.2557 13.3564 10.2618 13.311C10.2838 13.1178 10.3544 12.9286 10.4785 12.7612C10.8784 12.2223 11.6607 12.1006 12.217 12.5004L19.9881 18.1505L27.8112 12.4309C28.3502 12.031 29.1151 12.1527 29.5149 12.709C29.7275 12.9955 29.7927 13.3458 29.7235 13.6713V25.7998C29.7235 26.4604 29.1846 26.9994 28.5066 26.9994H27.2897V15.8265L19.9707 21.1407Z" fill="#1B4049"/>
</svg>
