<svg width="41" height="39" viewBox="0 0 41 39" fill="none" xmlns="http://www.w3.org/2000/svg">
<path fill-rule="evenodd" clip-rule="evenodd" d="M20.5 0C9.4543 0 0.5 8.73045 0.5 19.5C0.5 30.2696 9.4543 39 20.5 39C31.5457 39 40.5 30.2696 40.5 19.5C40.5 8.73045 31.5457 0 20.5 0ZM16.1027 9.16283C17.2405 9.11235 17.6041 9.1 20.501 9.1H20.4977C23.3955 9.1 23.7577 9.11235 24.8955 9.16283C26.0311 9.21353 26.8066 9.38882 27.4866 9.646C28.1889 9.91142 28.7822 10.2668 29.3755 10.8453C29.9689 11.4233 30.3333 12.0036 30.6067 12.6876C30.8689 13.3489 31.0489 14.1046 31.1022 15.2118C31.1533 16.3211 31.1667 16.6756 31.1667 19.5001C31.1667 22.3246 31.1533 22.6782 31.1022 23.7875C31.0489 24.8943 30.8689 25.6503 30.6067 26.3117C30.3333 26.9956 29.9689 27.5758 29.3755 28.1539C28.7829 28.7324 28.1886 29.0886 27.4873 29.3542C26.8086 29.6114 26.0326 29.7867 24.8971 29.8374C23.7593 29.8879 23.3968 29.9002 20.4997 29.9002C17.603 29.9002 17.2396 29.8879 16.1019 29.8374C14.9665 29.7867 14.1912 29.6114 13.5125 29.3542C12.8114 29.0886 12.2163 28.7324 11.6236 28.1539C11.0305 27.5758 10.666 26.9956 10.3933 26.3115C10.1298 25.6503 9.95001 24.8945 9.89779 23.7873C9.84623 22.678 9.83334 22.3246 9.83334 19.5001C9.83334 16.6756 9.84667 16.3209 9.89756 15.2116C9.94868 14.1048 10.1287 13.3489 10.3931 12.6874C10.6665 12.0036 11.0309 11.4233 11.6242 10.8453C12.2171 10.267 12.8123 9.91164 13.5138 9.646C14.1921 9.38882 14.9672 9.21353 16.1027 9.16283Z" fill="#1B4049"/>
<path fill-rule="evenodd" clip-rule="evenodd" d="M19.5441 10.9742C19.7299 10.9739 19.9298 10.974 20.1455 10.9741L20.501 10.9742C23.349 10.9742 23.6866 10.9841 24.8113 11.034C25.8513 11.0803 26.4157 11.2498 26.7917 11.3921C27.2895 11.5806 27.6444 11.8059 28.0175 12.17C28.3909 12.534 28.622 12.8806 28.8158 13.366C28.9618 13.7321 29.1358 14.2825 29.1831 15.2965C29.2342 16.3928 29.2453 16.7222 29.2453 19.4977C29.2453 22.2732 29.2342 22.6026 29.1831 23.6989C29.1355 24.7129 28.9618 25.2633 28.8158 25.6294C28.6224 26.1148 28.3909 26.4604 28.0175 26.8241C27.6442 27.1881 27.2897 27.4135 26.7917 27.602C26.4162 27.745 25.8513 27.914 24.8113 27.9604C23.6868 28.0102 23.349 28.021 20.501 28.021C17.6528 28.021 17.3152 28.0102 16.1907 27.9604C15.1507 27.9136 14.5863 27.7441 14.2101 27.6018C13.7123 27.4133 13.3567 27.1879 12.9834 26.8239C12.61 26.4599 12.3789 26.1141 12.1851 25.6286C12.0391 25.2624 11.8651 24.7121 11.8178 23.698C11.7667 22.6017 11.7565 22.2724 11.7565 19.4951C11.7565 16.7178 11.7667 16.3902 11.8178 15.2939C11.8654 14.2799 12.0391 13.7295 12.1851 13.3629C12.3785 12.8776 12.61 12.5309 12.9834 12.1669C13.3567 11.8029 13.7123 11.5776 14.2101 11.3886C14.5861 11.2456 15.1507 11.0766 16.1907 11.0301C17.1747 10.9867 17.5561 10.9737 19.5441 10.9716V10.9742ZM26.1948 12.701C25.4882 12.701 24.9148 13.2594 24.9148 13.9486C24.9148 14.6376 25.4882 15.1966 26.1948 15.1966C26.9015 15.1966 27.4749 14.6376 27.4749 13.9486C27.4749 13.2596 26.9015 12.7006 26.1948 12.7006V12.701ZM15.0232 19.5001C15.0232 16.5506 17.4758 14.1593 20.5008 14.1592C23.5259 14.1592 25.978 16.5506 25.978 19.5001C25.978 22.4496 23.5262 24.8399 20.501 24.8399C17.4759 24.8399 15.0232 22.4496 15.0232 19.5001Z" fill="#1B4049"/>
<path d="M20.501 16.0334C22.4646 16.0334 24.0566 17.5854 24.0566 19.5001C24.0566 21.4146 22.4646 22.9668 20.501 22.9668C18.5372 22.9668 16.9454 21.4146 16.9454 19.5001C16.9454 17.5854 18.5372 16.0334 20.501 16.0334Z" fill="#1B4049"/>
</svg>
