<svg width="41" height="39" viewBox="0 0 41 39" fill="none" xmlns="http://www.w3.org/2000/svg">
<path fill-rule="evenodd" clip-rule="evenodd" d="M20.5 0C9.4543 0 0.5 8.73045 0.5 19.5C0.5 30.2696 9.4543 39 20.5 39C31.5457 39 40.5 30.2696 40.5 19.5C40.5 8.73045 31.5457 0 20.5 0ZM10.1013 16.1507H14.6338V29.4284H10.1013V16.1507ZM14.9323 12.0434C14.9029 10.7416 13.9481 9.75 12.3975 9.75C10.847 9.75 9.83334 10.7416 9.83334 12.0434C9.83334 13.3183 10.8171 14.3385 12.3387 14.3385H12.3677C13.9481 14.3385 14.9323 13.3183 14.9323 12.0434ZM25.7609 15.839C28.7435 15.839 30.9795 17.7371 30.9795 21.8154L30.9793 29.4284H26.447V22.3248C26.447 20.5406 25.7912 19.3231 24.1504 19.3231C22.8982 19.3231 22.1524 20.1438 21.8248 20.9366C21.705 21.2207 21.6755 21.6166 21.6755 22.0134V29.4287H17.1426C17.1426 29.4287 17.2023 17.397 17.1426 16.1511H21.6755V18.0318C22.2771 17.1277 23.3545 15.839 25.7609 15.839Z" fill="#1B4049"/>
</svg>
