<svg width="73" height="67" viewBox="0 0 73 67" fill="none" xmlns="http://www.w3.org/2000/svg">
<path d="M8.56666 37.3209C18.851 41.7029 21.0107 19.4352 15.584 19.4352C10.1573 19.4352 12.0029 35.4033 16.8938 37.3209C23.6057 39.9524 24.1 30.9085 24.0983 29.2988C23.9194 33.174 25.6889 39.6717 30.8349 37.3209C37.0511 34.4812 37.2736 19.4352 32.7062 19.4352C29.0572 19.4352 27.1859 32.9478 35.7938 37.3209C44.4017 41.694 52.2858 7.77905 24.0983 7.77905C8.96556 7.77905 2.01709 14.6903 2.01709 27.6957C2.01709 41.7428 8.56666 49.309 25.1274 49.309C51.0723 49.309 47.8486 31.4098 48.4249 26.5895C48.377 34.2135 50.1685 38.7488 53.4774 38.7488C58.4361 38.7488 58.6133 30.5243 58.717 26.5895C58.4785 36.6651 58.717 44.1049 58.717 55.927C58.717 70.8616 41.3479 64.6005 49.5477 54.0558C56.1076 45.62 67.7792 33.8399 71.0674 30.1409" stroke="#1B4049" stroke-width="2.5" stroke-linecap="round" stroke-linejoin="round"/>
<path d="M2.01729 26.3857C1.86824 18.665 2.67689 1.14207 4.68009 1.49978C6.68329 1.85749 11.1749 6.34225 13.6193 8.99529" stroke="#1B4049" stroke-width="2.5" stroke-linecap="round" stroke-linejoin="round"/>
<path d="M43.7469 24.0592C43.8959 16.3385 42.9196 0.996334 40.9164 1.35405C38.9132 1.71176 34.4021 6.0616 31.9577 8.71464" stroke="#1B4049" stroke-width="2.5" stroke-linecap="round" stroke-linejoin="round"/>
<circle cx="23.9621" cy="27.3923" r="1.25509" stroke="#1B4049" stroke-width="2"/>
</svg>
